<svg width="200" height="200" viewBox="0 0 200 200" xmlns="http://www.w3.org/2000/svg">
  <!-- Gradient tanımları -->
  <defs>
    <radialGradient id="orangeGradient" cx="50%" cy="50%" r="50%">
      <stop offset="0%" style="stop-color:#FFD700;stop-opacity:1" />
      <stop offset="100%" style="stop-color:#FF8C00;stop-opacity:1" />
    </radialGradient>
  </defs>
  
  <!-- Ana daire (sarı-turuncu gradient) -->
  <circle cx="100" cy="100" r="90" fill="url(#orangeGradient)" />
  
  <!-- Kuş silüeti (lacivert) -->
  <path d="M 60 80 Q 80 60 120 70 Q 140 75 160 85 Q 150 95 140 100 Q 130 110 120 115 Q 100 120 80 115 Q 70 110 65 100 Q 60 90 60 80 Z" fill="#1E3A8A" />
  <path d="M 120 70 Q 130 65 145 70 Q 155 75 160 85 Q 150 80 140 75 Q 130 70 120 70 Z" fill="#1E2A5E" />
  
  <!-- Kuş kanadı detayları -->
  <path d="M 80 100 Q 90 95 100 100 Q 110 105 120 100 Q 115 110 105 115 Q 95 115 85 110 Q 80 105 80 100 Z" fill="#1E2A5E" />
</svg>
